<?xml version="1.0" encoding="UTF-8" standalone="no"?>
<!DOCTYPE svg PUBLIC "-//W3C//DTD SVG 1.1//EN" "http://www.w3.org/Graphics/SVG/1.1/DTD/svg11.dtd">
<svg width="100%" height="100%" viewBox="0 0 1024 1024" version="1.1" xmlns="http://www.w3.org/2000/svg" xmlns:xlink="http://www.w3.org/1999/xlink" xml:space="preserve" xmlns:serif="http://www.serif.com/" style="fill-rule:evenodd;clip-rule:evenodd;stroke-linejoin:round;stroke-miterlimit:2;">
    <g transform="matrix(1.67714,0,0,1.67714,-360.268,-276.352)">
        <path d="M666.813,541.359C659.843,541.353 653.343,541.361 646.843,541.336C639.233,541.308 634.839,537.39 634.702,530.55C634.571,524.019 639.781,518.829 646.902,518.724C656.066,518.589 665.24,518.491 674.398,518.756C678.577,518.876 680.003,517.386 679.887,513.332C679.688,506.398 679.832,499.453 679.832,491.552C674.3,494.635 669.489,497.138 664.85,499.928C613.97,530.528 561.122,557.399 507.542,582.866C460.591,605.183 413.041,626.125 363.209,641.261C333.203,650.375 302.706,657.295 271,656.58C261.132,656.357 251.873,654.027 243.55,648.663C232.769,641.714 229.472,628.856 234.515,615.449C239.37,602.544 248.786,593.042 258.198,583.658C276.439,565.472 297.031,550.189 318.771,536.464C322.386,534.182 323.094,531.455 322.509,527.656C318.862,503.971 320.639,480.569 326.14,457.337C336.816,412.245 361.93,376.362 397.3,347.447C417.551,330.891 441.396,320.944 466.417,313.675C487.519,307.544 509.156,306.092 530.737,308.035C553.342,310.07 575.151,316.299 595.803,326.132C617.218,336.328 636.425,349.652 653.249,366.34C656.243,369.309 658.861,370.158 662.916,368.618C685.648,359.984 708.759,352.501 732.528,347.261C747.531,343.953 762.726,342.5 778.119,343.743C793.089,344.952 805.131,354.455 806.831,367.167C808.073,376.445 805.192,384.878 800.156,392.691C789.822,408.725 775.983,421.453 761.714,433.788C745.165,448.095 727.24,460.538 708.934,472.441C705.094,474.937 703.463,477.38 704.066,482.518C706.835,506.103 704.489,529.45 697.661,552.117C687.623,585.443 669.174,613.563 642.914,636.464C626.885,650.444 609.624,662.679 589.749,670.529C566.067,679.883 541.66,685.342 515.864,685.63C480.442,686.026 447.74,677.29 416.85,660.588C413.475,658.763 410.119,656.866 407.323,654.208C403.965,651.016 403.934,648.229 407.495,645.374C411.661,642.036 416.267,639.323 421.184,637.183C423.52,636.167 425.611,636.557 427.804,637.867C455.683,654.516 485.976,662.657 518.337,661.548C565.486,659.932 605.273,641.258 638.045,607.45C638.369,607.116 638.542,606.636 638.829,606.152C637.135,604.839 635.239,605.404 633.497,605.401C601.997,605.339 570.498,605.344 538.998,605.295C532.095,605.284 527.406,601.424 526.715,595.383C525.875,588.04 530.592,582.919 538.682,582.747C546.512,582.581 554.348,582.704 562.181,582.703C591.68,582.698 621.181,582.59 650.679,582.788C655.726,582.822 658.548,581.097 660.756,576.591C666.176,565.531 671.649,554.542 674.168,542.303C671.906,540.679 669.505,541.655 666.813,541.359M462.592,393.348C463.977,401.104 460.266,406.462 452.601,407.588C450.47,407.901 448.286,407.946 446.126,407.953C423.96,408.027 401.794,408.135 379.629,408.055C375.753,408.041 373.089,409.096 370.991,412.548C362.195,427.014 355.399,442.317 350.786,458.61C349.758,462.239 351.452,463.082 354.54,463.073C363.206,463.047 371.873,463.06 380.539,463.064C390.039,463.069 399.541,462.97 409.038,463.13C414.621,463.224 419.443,466.768 420.841,471.615C422.23,476.434 420.721,480.512 416.932,483.692C414.213,485.974 410.882,486.203 407.491,486.197C388.992,486.164 370.491,486.247 351.993,486.095C347.962,486.062 346.323,486.984 345.819,491.527C343.743,510.236 346.478,528.344 351.57,546.223C353.462,552.867 355.652,559.448 359.266,565.992C368.081,562.032 376.415,558.281 384.757,554.547C387.089,553.503 387.684,552.003 387.167,549.357C385.844,542.581 386.867,536.127 390.978,530.345C392.046,528.842 392.561,527.138 392.698,525.221C393.602,512.588 400.098,503.359 410.735,497.051C419.326,491.956 428.085,487.104 437.013,482.632C441.597,480.336 443.146,477.939 442.02,472.563C438.929,457.803 444.985,443.685 457.765,436.628C477.449,425.759 497.463,415.484 517.408,405.094C525.512,400.873 533.972,400.711 542.608,403.64C550.35,406.265 555.884,411.601 560.447,417.97C591.007,403.632 602.204,406.743 623.304,435.541C634.747,428.927 646.254,422.288 657.748,415.628C660.822,413.847 659.298,411.798 658.04,409.753C651.167,398.58 642.204,389.208 632.809,380.175C630.598,378.048 628.318,377.087 625.271,377.107C612.106,377.195 598.939,377.124 585.773,377.114C559.273,377.095 532.774,377.105 506.274,377.04C500.276,377.026 495.739,373.312 494.791,367.958C493.82,362.468 497.145,356.941 502.685,355.044C505.382,354.121 508.205,353.913 511.063,353.91C536.896,353.889 562.729,353.833 588.561,353.769C590.126,353.765 591.69,353.613 593.254,353.53C559.414,334.273 523.285,328.459 485.312,334.5C448.96,340.284 419.126,358.357 393.379,384.572C396.28,386.015 398.801,385.615 401.232,385.623C417.565,385.679 433.899,385.783 450.231,385.614C455.848,385.556 459.912,387.466 462.592,393.348M596.915,511.381C615.201,501.425 633.363,491.254 651.306,480.683C686.649,459.861 721.159,437.881 752.011,410.606C762.021,401.757 771.629,392.531 778.985,381.313C783.604,374.268 781.528,370.064 773.241,368.053C766.465,366.409 759.575,366.8 752.857,367.637C747.083,368.356 741.012,368.631 735.06,371.487C741.652,380.763 737.05,387.686 730.858,393.887C722.354,402.405 712.588,409.415 702.461,415.87C673.37,434.412 643.28,451.22 612.934,467.605C576.304,487.383 539.709,507.218 502.384,525.673C461.626,545.825 420.812,565.876 378.56,582.753C356.617,591.517 334.417,599.677 310.79,602.938C305.57,603.658 300.451,603.314 295.494,601.727C290.146,600.015 286.685,596.15 284.871,590.36C276.215,598.293 267.793,605.636 261.487,614.943C255.765,623.387 257.681,628.544 267.632,630.856C275.935,632.786 284.537,632.238 292.974,632.091C308.018,631.829 322.492,627.648 336.971,624.058C376.683,614.21 414.5,598.99 451.881,582.646C501.055,561.147 548.929,536.986 596.915,511.381M422.233,538.612C426.488,536.71 430.791,534.906 434.992,532.891C469.962,516.117 504.5,498.481 539.083,480.929C559.426,470.604 579.586,459.96 599.438,448.718C602.724,446.857 602.876,445.011 601.486,441.87C598.074,434.161 586.478,429.243 578.204,433.438C565.728,439.763 553.597,446.702 541.206,453.169C508.75,470.108 476.337,487.129 443.94,504.179C435.99,508.363 427.892,512.294 420.387,517.284C416.143,520.105 413.141,523.914 412.878,529.059C412.626,533.975 412.144,538.817 410.524,544.268C414.704,542.246 418.131,540.588 422.233,538.612M523.3,426.867C512.557,432.509 501.74,438.017 491.095,443.84C483.223,448.146 475.479,452.71 467.86,457.451C462.791,460.605 461.693,463.977 463.749,469.082C489.366,455.507 515.093,442.306 540.524,427.997C534.552,422.294 532.158,422.155 523.3,426.867M691.141,395.613C698.627,390.12 706.882,385.546 713.766,377.195C699.323,380.283 686.884,384.84 674.323,389.795C675.015,391.224 675.286,392.016 675.739,392.684C682.408,402.511 680.324,402.351 691.141,395.613M321.444,576.836C325.673,575.227 330.476,575.271 334.644,572.591C332.6,567.457 330.686,562.65 328.466,557.073C321.26,562.577 314.821,567.452 308.441,572.403C306.973,573.541 305.668,575.004 306.624,577.079C307.462,578.9 309.219,578.793 310.918,578.806C314.279,578.832 317.452,577.885 321.444,576.836Z" style="fill-rule:nonzero;"/>
    </g>
    <g transform="matrix(1.67714,0,0,1.67714,-360.268,-276.352)">
        <path d="M515.712,288.497C513.241,292.454 511.396,291.4 509.836,288.258C509.396,287.371 509.108,286.391 508.868,285.424C505.249,270.795 496.222,261.2 481.996,256.365C479.875,255.644 476.923,255.306 476.992,252.34C477.054,249.69 479.836,249.433 481.806,248.71C494.733,243.971 504.15,235.728 508.407,222.268C508.909,220.683 509.525,219.13 510.152,217.589C510.705,216.23 511.704,215.452 513.247,215.557C514.685,215.654 515.097,216.713 515.505,217.859C516.564,220.837 517.517,223.868 518.808,226.746C523.892,238.079 532.687,245.182 544.371,249.018C546.225,249.627 549.217,249.447 549.018,252.549C548.865,254.927 546.568,255.567 544.686,256.131C528.568,260.96 519.356,271.958 515.712,288.497Z" style="fill-rule:nonzero;"/>
    </g>
    <g transform="matrix(1.67714,0,0,1.67714,-360.268,-276.352)">
        <path d="M286.951,513.135C275.398,517.246 267.627,524.592 263.954,536.085C263.43,537.722 262.943,539.964 260.613,539.91C258.146,539.853 257.536,537.676 256.976,535.746C253.747,524.613 246.597,517.446 235.465,514.165C233.626,513.623 231.215,513.093 231.345,510.524C231.458,508.307 233.639,507.964 235.365,507.375C246.306,503.638 253.975,496.653 257.296,485.323C257.777,483.681 258.542,482.091 260.56,482.041C262.656,481.989 263.311,483.696 263.816,485.29C267.407,496.638 274.898,503.932 286.293,507.385C289.824,508.455 291.399,510.328 286.951,513.135Z" style="fill-rule:nonzero;"/>
    </g>
    <g transform="matrix(1.67714,0,0,1.67714,-360.268,-276.352)">
        <path d="M769.336,526.36C767.059,529.538 765.889,532.795 764.927,536.177C764.43,537.924 763.663,539.893 761.391,539.772C759.455,539.669 758.708,537.887 758.258,536.294C757.209,532.586 755.704,529.086 753.766,525.78C750.302,519.873 744.887,516.5 738.576,514.354C737.319,513.927 736.016,513.632 734.772,513.174C733.506,512.71 732.142,512.097 732.133,510.536C732.122,508.919 733.581,508.308 734.833,507.999C747.332,504.91 754.94,496.952 758.344,484.698C758.775,483.148 759.872,482.043 761.547,481.971C763.334,481.893 764.255,483.224 764.709,484.689C768.415,496.644 776.412,504.088 788.376,507.438C789.812,507.841 791.459,508.177 791.494,510.115C791.526,511.955 789.98,512.58 788.617,513.153C782.327,515.799 775.924,518.244 771.329,523.664C770.686,524.423 770.135,525.259 769.336,526.36Z" style="fill-rule:nonzero;"/>
    </g>
    <g transform="matrix(1.67714,0,0,1.67714,-360.268,-276.352)">
        <path d="M501.589,639.817C495.076,637.138 492.437,632.035 494.551,626.823C496.702,621.518 501.929,619.337 507.164,621.559C511.294,623.312 513.704,628.184 512.626,632.601C511.347,637.838 507.923,640.198 501.589,639.817Z" style="fill-rule:nonzero;"/>
    </g>
    <g transform="matrix(1.67714,0,0,1.67714,-360.268,-276.352)">
        <path d="M462.726,633.095C462.16,626.481 464.565,622.152 469.205,620.909C473.654,619.716 477.864,621.598 480.063,625.762C482.306,630.01 481.422,634.756 477.802,637.902C472.903,642.159 466.971,640.401 462.726,633.095Z" style="fill-rule:nonzero;"/>
    </g>
    <g transform="matrix(1.67714,0,0,1.67714,-360.268,-276.352)">
        <path d="M535.18,628.53C536.821,623.375 539.851,620.416 545.094,620.805C549.784,621.153 552.594,624.121 553.679,628.516C554.78,632.975 552.508,636.182 549.017,638.59C546.174,640.552 543.101,640.609 540.145,638.816C536.458,636.579 534.459,633.388 535.18,628.53Z" style="fill-rule:nonzero;"/>
    </g>
    <g transform="matrix(1.67714,0,0,1.67714,-360.268,-276.352)">
        <path d="M437.732,525.274C435.171,529.61 431.612,530.624 427.856,528.38C424.427,526.331 423.856,522.774 425.923,519.283C427.986,515.799 431.198,514.84 434.87,516.512C438.588,518.204 438.872,521.392 437.732,525.274Z" style="fill-rule:nonzero;"/>
    </g>
    <g transform="matrix(1.67714,0,0,1.67714,-360.268,-276.352)">
        <path d="M447.813,511.962C448.287,507.688 450.047,504.88 454.301,504.884C457.555,504.888 459.954,506.601 460.93,509.832C461.913,513.082 460.814,515.707 458.054,517.552C453.979,520.277 449.694,518.07 447.813,511.962Z" style="fill-rule:nonzero;"/>
    </g>
    <g transform="matrix(1.67714,0,0,1.67714,-360.268,-276.352)">
        <path d="M517.928,483.35C516.531,482.018 515.913,480.744 515.554,479.241C514.382,474.334 516.198,470.851 520.408,470.174C524.038,469.59 527.681,472.465 528.063,476.216C528.476,480.271 524.756,484.319 520.592,484.248C519.807,484.235 519.029,483.831 517.928,483.35Z" style="fill-rule:nonzero;"/>
    </g>
    <g transform="matrix(1.67714,0,0,1.67714,-360.268,-276.352)">
        <path d="M566.61,460.4C561.944,460.632 559.048,458.929 558.753,454.374C558.517,450.731 559.853,447.585 563.746,446.831C567.688,446.068 570.77,447.93 571.731,451.868C572.708,455.868 571.322,459.069 566.61,460.4Z" style="fill-rule:nonzero;"/>
    </g>
    <g transform="matrix(1.67714,0,0,1.67714,-360.268,-276.352)">
        <path d="M482.121,498.01C482.407,499.188 482.715,500.005 482.696,500.814C482.61,504.555 480.878,507.273 477.158,508.113C473.946,508.838 471.738,507.204 470.512,504.211C469.007,500.54 469.724,497.143 472.698,494.758C475.526,492.491 478.348,494.057 480.777,496.082C481.273,496.495 481.592,497.119 482.121,498.01Z" style="fill-rule:nonzero;"/>
    </g>
    <g transform="matrix(1.67714,0,0,1.67714,-360.268,-276.352)">
        <path d="M502.025,494.507C498.017,495.9 494.723,495.726 492.622,491.966C491.002,489.066 491.904,486.486 494.104,484.299C497.07,481.351 501.271,481.213 503.897,483.883C506.533,486.564 505.937,490.648 502.025,494.507Z" style="fill-rule:nonzero;"/>
    </g>
    <g transform="matrix(1.67714,0,0,1.67714,-360.268,-276.352)">
        <path d="M550.031,464.289C549.937,468.506 548.565,471.633 544.466,472.357C541.507,472.879 538.837,471.867 537.442,468.88C536.104,466.016 536.669,463.37 538.746,461.068C540.976,458.598 543.647,458.615 546.454,459.94C548.178,460.753 549.419,462.029 550.031,464.289Z" style="fill-rule:nonzero;"/>
    </g>
</svg>
