<?xml version="1.0" encoding="UTF-8" standalone="no"?>
<!DOCTYPE svg PUBLIC "-//W3C//DTD SVG 1.1//EN" "http://www.w3.org/Graphics/SVG/1.1/DTD/svg11.dtd">
<svg width="100%" height="100%" viewBox="0 0 2084 524" version="1.1" xmlns="http://www.w3.org/2000/svg" xmlns:xlink="http://www.w3.org/1999/xlink" xml:space="preserve" xmlns:serif="http://www.serif.com/" style="fill-rule:evenodd;clip-rule:evenodd;stroke-linejoin:round;stroke-miterlimit:2;">
    <g>
        <g transform="matrix(3.39648,0,0,3.39648,-695.118,-2302.84)">
            <path d="M409.247,773.711C407.572,779.375 403.405,776.582 400.385,776.695C397.334,776.809 397.736,773.984 397.618,771.83C397.336,766.642 398.461,761.325 396.585,755.749C391.823,758.767 389.388,763.292 384.499,767.846C381.088,763.728 377.767,759.719 373.788,754.916C372.542,761.427 372.911,766.572 373.004,771.645C373.1,776.921 370.278,777.382 366.041,777.416C361.548,777.453 360.78,775.234 360.843,771.506C361.064,758.527 361.138,745.545 361.268,732.565C361.28,731.373 361.309,730.105 362.717,729.717C364.22,729.304 365.187,730.364 366.172,731.281C371.169,735.936 376.275,740.481 381.143,745.267C383.98,748.057 386.254,748.142 389.177,745.33C393.734,740.944 398.596,736.874 403.341,732.684C404.675,731.506 405.77,729.864 409.268,730.297C409.268,744.503 409.268,758.873 409.247,773.711Z" style="fill-rule:nonzero;"/>
        </g>
        <g transform="matrix(3.39648,0,0,3.39648,-695.118,-2303.26)">
            <path d="M291.505,729.865C298.923,731.329 304.606,734.577 308.483,740.83C314.457,750.468 312.377,765.287 303.871,772.275C295.04,779.529 279.908,779.088 271.615,771.336C265.334,765.463 262.609,752.816 265.921,744.907C270.107,734.911 279.156,729.474 291.505,729.865M297.776,746.819C296.497,745.769 295.329,744.529 293.918,743.705C288.576,740.586 282.409,742.185 278.587,747.545C274.98,752.602 275.723,757.89 280.639,762.158C284.699,765.684 290.452,765.928 294.935,762.766C300.06,759.15 301.135,754.141 297.776,746.819Z" style="fill-rule:nonzero;"/>
        </g>
        <g transform="matrix(3.39648,0,0,3.39648,-695.118,-2302.93)">
            <path d="M757.185,767.267C757.438,778.809 757.78,777.2 748.134,777.306C741.636,777.377 735.135,777.21 728.64,777.35C725.068,777.427 723.23,775.808 723.203,772.398C723.1,759.406 723.097,746.412 723.113,733.42C723.116,731.079 724.294,729.731 726.828,729.746C735.658,729.797 744.489,729.816 753.32,729.807C756.045,729.805 757.228,731.108 757.213,733.795C757.167,742.024 757.951,743.667 748.798,742.497C745.682,742.098 742.474,742.366 739.309,742.418C737.531,742.448 735.357,742.112 735.294,744.891C735.228,747.862 737.45,747.794 739.483,747.823C742.815,747.871 746.149,747.934 749.479,747.858C754.488,747.743 753.749,751.403 753.954,754.478C754.163,757.613 753.774,760.227 749.651,760.128C746.321,760.048 742.985,760.082 739.655,760.165C737.913,760.208 735.553,759.717 735.475,762.436C735.395,765.179 737.728,764.844 739.498,764.86C743.83,764.901 748.163,764.791 752.494,764.846C754.247,764.869 756.302,764.453 757.185,767.267Z" style="fill-rule:nonzero;"/>
        </g>
        <g transform="matrix(3.39648,0,0,3.39648,-695.118,-2303.76)">
            <path d="M601.324,777.237C594.663,778.157 589.775,776.709 587.593,769.982C587.106,768.48 585.815,767.189 584.731,765.942C583.262,764.252 581.264,764.01 579.238,764.615C577.148,765.239 577.415,767.122 577.348,768.762C577.321,769.426 577.341,770.092 577.335,770.756C577.278,776.783 573.38,779.27 567.69,777.003C565.926,776.3 565.705,774.925 565.702,773.394C565.679,760.263 565.699,747.133 565.651,734.002C565.642,731.617 566.525,730.045 569.01,730.03C575.307,729.994 581.629,729.28 587.9,730.312C594.714,731.433 599.493,735.212 601.584,741.848C603.604,748.264 602.173,753.965 597.2,758.66C596.732,759.102 596.377,759.665 595.809,760.372C598.67,764.05 601.975,767.438 602.867,772.161C603.203,773.944 604.635,776.094 601.324,777.237M578.4,751.226C581.302,752.235 584.269,751.945 587.192,751.481C588.898,751.21 590.23,750.174 590.546,748.299C590.85,746.493 590.18,745.066 588.664,744.049C585.563,741.969 581.854,741.294 578.823,742.971C576.061,744.499 577.31,747.937 578.4,751.226Z" style="fill-rule:nonzero;"/>
        </g>
        <g transform="matrix(3.39648,0,0,3.39648,-695.118,-2303.08)">
            <path d="M779.787,745.812C784.334,747.383 788.612,748.722 792.823,750.248C804.565,754.502 804.58,765.074 797.045,772.237C789.466,779.44 773.766,778.965 766.2,771.787C763.432,769.161 763.555,766.81 765.814,764.01C767.993,761.31 770.184,759.341 773.787,761.696C778.26,764.62 782.921,766.275 788.206,763.763C788.041,760.932 785.789,760.995 784.234,760.454C780.782,759.255 777.169,758.496 773.758,757.198C769.036,755.401 765.266,752.544 764.716,746.964C764.1,740.731 766.282,735.913 771.826,732.727C781.723,727.039 795.232,729.849 800.523,738.739C795.355,745.424 794.525,745.675 787.227,742.874C785.002,742.02 782.68,741.638 780.381,742.37C778.627,742.928 776.981,743.815 779.787,745.812Z" style="fill-rule:nonzero;"/>
        </g>
        <g transform="matrix(3.39648,0,0,3.39648,-695.118,-2302.81)">
            <path d="M320.857,754.081C316.627,748.654 316.044,743.124 319.337,737.53C322.793,731.66 331.625,728.344 339.184,729.986C341.749,730.543 344.339,731.509 346.591,732.841C349.098,734.323 352.954,735.611 351.045,739.781C348.688,744.929 345.871,745.791 340.825,743.546C336.411,741.582 333.646,741.733 330.051,744.27C331.134,746.753 333.615,746.917 335.71,747.587C339.192,748.7 342.763,749.547 346.203,750.769C350.776,752.392 354,755.647 354.461,760.505C354.961,765.762 352.936,770.336 348.452,773.486C340.139,779.324 326.763,778.658 319.098,771.973C317.304,770.409 314.634,768.72 317.397,765.909C319.703,763.562 320.992,758.718 325.964,761.997C328.803,763.87 332.05,764.623 335.373,765.081C337.43,765.365 339.236,764.907 341.286,763.239C335.05,758.336 326.66,759.46 320.857,754.081Z" style="fill-rule:nonzero;"/>
        </g>
        <g transform="matrix(3.39648,0,0,3.39648,-695.118,-2302.93)">
            <path d="M688.854,731.447C696.996,728.205 704.217,729.439 710.954,734.164C713.174,735.72 715.915,737.475 713.12,740.432C710.933,742.746 709.374,747.581 704.492,743.856C702.072,742.009 699.227,740.883 696.069,741.576C694.623,741.893 692.932,742.416 692.744,744.16C692.528,746.168 694.334,746.343 695.763,746.769C699.903,748.004 704.051,749.22 708.162,750.546C713.119,752.145 716.026,755.847 716.566,760.767C717.144,766.027 715.039,770.495 710.4,773.55C701.721,779.264 688.691,778.622 681.445,772.223C678.822,769.906 678.381,768.159 680.944,765.256C684.143,761.631 686.696,759.525 691.57,763.034C695.223,765.665 699.756,765.919 704.258,763.357C702.88,760.696 700.778,760.701 698.917,760.345C694.819,759.563 690.738,758.71 687.126,756.509C675.783,749.596 677.835,736.194 688.854,731.447Z" style="fill-rule:nonzero;"/>
        </g>
        <g transform="matrix(3.39648,0,0,3.39648,-695.118,-2302.18)">
            <path d="M609.651,743.012C609.651,740.684 609.648,738.854 609.652,737.024C609.668,730.26 612.772,728.047 619.306,729.989C621.854,730.746 621.969,732.712 621.98,734.724C622.02,741.378 621.912,748.033 621.99,754.687C622.067,761.339 625.154,765.028 630.282,764.848C635.25,764.674 638.64,760.542 638.633,754.439C638.625,747.957 638.96,741.462 638.117,735C637.672,731.589 638.677,729.436 642.636,729.766C646.054,730.051 650.385,728.531 650.24,734.663C650.056,742.478 650.441,750.308 650.199,758.119C649.812,770.584 641.658,777.625 628.378,777.331C617.501,777.09 609.749,768.893 609.652,757.485C609.613,752.827 609.649,748.168 609.651,743.012Z" style="fill-rule:nonzero;"/>
        </g>
        <g transform="matrix(3.39648,0,0,3.39648,-695.118,-2303.34)">
            <path d="M260.366,768.637C253.843,776.869 243.546,779.687 234.222,776.1C224.185,772.239 218.259,762.899 218.719,751.67C219.104,742.299 226.097,733.65 235.473,730.817C244.111,728.206 251.588,730.261 257.987,736.407C259.549,737.907 262.146,739.737 259.38,742.13C256.948,744.233 254.931,748.109 250.588,745.603C250.014,745.272 249.522,744.802 248.963,744.441C243.359,740.821 238.5,741.367 234.241,746.083C230.387,750.352 230.152,755.718 233.624,760.213C237.366,765.058 242.692,766.129 248.301,763.164C254.901,759.674 257.989,760.979 260.366,768.637Z" style="fill-rule:nonzero;"/>
        </g>
        <g transform="matrix(3.39648,0,0,3.39648,-695.118,-2302.85)">
            <path d="M458.786,763.465C463.98,765.569 468.48,765.323 472.625,761.76C477.172,757.852 478.935,762.814 481.52,764.799C484.575,767.144 482.529,769.09 480.752,770.953C473.004,779.072 458.463,779.652 449.254,772.214C439.811,764.587 437.757,750.1 444.724,740.256C453.039,728.506 468.325,726.104 478.776,734.952C480.398,736.325 482.177,737.669 482.61,740.159C481.029,742.534 478.199,743.492 476.191,745.425C474.518,747.036 472.916,746.147 471.236,745.135C464.303,740.958 459.003,741.645 455.092,747.108C451.394,752.275 452.607,758.119 458.786,763.465Z" style="fill-rule:nonzero;"/>
        </g>
        <g transform="matrix(3.39648,0,0,3.39648,-695.118,-2302.87)">
            <path d="M520.753,765.024C515.62,755.397 516.907,746.421 523.161,738.549C529.343,730.767 537.802,727.835 547.676,730.662C549.873,731.291 552.013,732.387 553.943,733.632C560.946,738.15 560.715,742.117 553.48,746.207C550.579,747.847 549.22,745.322 547.396,744.234C542.176,741.116 536.93,741.824 533.12,746.356C529.255,750.952 529.322,757.126 533.282,761.327C537.188,765.471 543.238,765.98 548.249,762.587C551.714,760.241 555.587,761.395 558.714,765.893C561.306,769.621 557.617,771.006 555.688,772.507C544.352,781.326 528.899,778.071 520.753,765.024Z" style="fill-rule:nonzero;"/>
        </g>
        <g transform="matrix(3.39648,0,0,3.39648,-695.118,-2302.98)">
            <path d="M659.67,769.891C659.672,758.283 659.898,747.154 659.574,736.042C659.432,731.142 661.222,729.761 665.867,729.758C670.304,729.756 672.08,731.023 671.993,735.713C671.775,747.327 671.945,758.95 672.106,770.568C672.163,774.718 671.724,777.686 666.273,777.343C660.116,776.955 659.797,776.965 659.67,769.891Z" style="fill-rule:nonzero;"/>
        </g>
        <g transform="matrix(3.39648,0,0,3.39648,-695.118,-2302.65)">
            <path d="M432.319,742.019C432.325,752.345 432.118,762.182 432.431,772.003C432.582,776.762 430.037,777.01 426.495,777.07C422.793,777.132 420.532,776.456 420.613,771.915C420.834,759.59 420.848,747.254 420.604,734.93C420.51,730.218 423.102,729.965 426.599,729.866C430.327,729.761 432.857,730.468 432.35,735.03C432.112,737.169 432.315,739.357 432.319,742.019Z" style="fill-rule:nonzero;"/>
        </g>
    </g>
</svg>
